<svg xmlns="http://www.w3.org/2000/svg" xmlns:xlink="http://www.w3.org/1999/xlink" width="499.424" height="468.523" viewBox="0 0 499.424 468.523"><defs><clipPath id="a"><path d="M0,170.144V139.952c4.543-7.742,8.973-15.474,12.708-22.016l.1-.172c.656-1.175,1.33-2.35,1.91-3.358l.316-.559.2-.36.47-.829h.781v-1.334q.807-1.374,1.616-2.744l.239-.406.227-.384c.7-.061,1.431-.091,2.188-.091a70.714,70.714,0,0,1,9.08.82l.09.012a74.938,74.938,0,0,0,8.8.818h.261c6.815,0,12.158-1.725,17.482-3.648.178-.45.326-.84.45-1.192a30.835,30.835,0,0,1-5.138,9.244c-1.733,2.139-4.567,3.765-7.307,5.337l-.034.019,0,0-.005,0,0,0a36.162,36.162,0,0,0-6.03,4A10.041,10.041,0,0,0,36.2,125.8a11.208,11.208,0,0,0-1.615,5.335,13.116,13.116,0,0,0,.638,3.616l0,.013,0,.013a15.78,15.78,0,0,1,.743,4.456,12.409,12.409,0,0,1-.191,2.187,15.116,15.116,0,0,1-3.456,6.991,39.921,39.921,0,0,1-7.124,6.573c-5.7,4.277-13.212,8.462-20.473,12.51l-.016.009-.006,0-.005,0-.218.122-.021.012-.171.1-.356.2-.074.041c-1.112.621-2.5,1.394-3.859,2.162ZM0,136.5v0H0V112.658H10.209a9.5,9.5,0,0,1,.92,4.524C6.878,124.645,3.342,130.782,0,136.5Zm12.639-21.976v0a13.6,13.6,0,0,0-.571-1.864H13.7c-.074.126-.144.25-.221.387l-.037.066-.047.084-.014.026c-.06.106-.122.215-.184.32-.142.269-.318.58-.554.981Zm3.855-6.651v0h0V83.144H14.722L4.046,78.109c2.678-3.342,5.99-5.829,9.5-8.463l.006,0,.005,0,.146-.109.125-.095c.61-.457,1.262-.949,1.9-1.441a42.057,42.057,0,0,0,1.91,13.127,53.177,53.177,0,0,0,2.825,6.374l.01.02.01.02.01.02.149.3.165.332.008.016,0,.01A43.362,43.362,0,0,1,23.8,95.2l.5-.152c-2.919,4.693-5.474,8.886-7.81,12.821Zm22.534-.272h-.3a70.818,70.818,0,0,1-8.661-.815l-.018,0a73.823,73.823,0,0,0-9.324-.825c-.387,0-.753.007-1.058.019,2.811-4.667,5.812-9.532,9.445-15.313l.051-.078a10.2,10.2,0,0,1,2.743-.305c1.149,0,2.34.1,3.559.2,1.132.1,2.414.212,3.7.212a15.1,15.1,0,0,0,1.544-.073c4.141-.416,11.071-1.112,16.337-4.2-.193-.513-.414-1.042-.677-1.618-4.352,2.632-10.446,3.545-15.834,4.091a12.439,12.439,0,0,1-1.337.061c-1.111,0-2.288-.1-3.426-.2h-.014l-.153-.013-.121-.01h-.01c-1.167-.1-2.374-.2-3.567-.2-.557,0-1.045.021-1.493.066,4.318-6.91,9.313-14.965,13.924-23.145.553.161,1.19.31,1.893.441a32.618,32.618,0,0,0,5.747.475A44.527,44.527,0,0,0,64.9,64.426c.309-.66.639-1.381.955-2.171a42.389,42.389,0,0,1-13.889,2.367,28.261,28.261,0,0,1-6.771-.742c1.336-2.385,2.692-4.91,4.028-7.509,1.755-3.447,3.581-7.3,5.747-12.123A53.1,53.1,0,0,0,71.129,40.1c0-.021.007-.042.01-.063l0-.009v-.015l0-.02v-.013l0-.019a.852.852,0,0,1,.014-.089c-1.141,9.392-2.846,16.56-5.362,22.558-3.113,7.421-7.418,12.842-13.162,16.572a23.936,23.936,0,0,1,5.92,16.017c0,.9-.027,1.6-.087,2.263a28.993,28.993,0,0,1-1.237,6.286l-.009.005C51.535,105.647,46.16,107.6,39.028,107.6ZM25.139,93.726v0a55.17,55.17,0,0,0-2.922-6.632l-.008-.016,0-.007-.011-.021-.014-.029a50.659,50.659,0,0,1-2.874-6.463c-1.627-4.806-1.807-9.318-1.858-13.9a53.489,53.489,0,0,0,7.638-7.263,43.171,43.171,0,0,0,5.33-8.211,62.816,62.816,0,0,0,6.476,23.545c-2.97,4.938-6.012,9.828-8.872,14.413l-.156.049.052.112-.278.439c-.836,1.324-1.653,2.628-2.5,3.984Zm12.83-20.78v0a60.677,60.677,0,0,1-5.936-25.006c.278-.579.553-1.161.82-1.723l.119-.252.105-.222,0-.005c2.8-5.911,5.686-12.024,10.9-17.095-1.2,12.411.378,20.793,4.689,24.913l-.121.246-.048.1-.071.145-.018.038-.018.037c-.238.484-.482.982-.732,1.465-2.728,5.325-5.9,11-9.687,17.363ZM49.479,51.895h0c-2.152-2.307-3.487-6.007-3.969-11A68.354,68.354,0,0,1,45.9,26.851c-.267.236-.506.449-.625.555a123.694,123.694,0,0,1,10.19-7.963l.005,0C60.68,15.651,66.064,11.734,70.156,7c-.269.576-.551,1.15-.8,1.658l-.056.114,0,.007c-.115.235-.229.467-.34.7-.667,1.336-1.327,2.7-1.961,4.055-.792,1.773-1.7,3.6-2.573,5.368l-.05.1-.086.174c-1.263,2.528-2.3,4.659-3.263,6.84-1.109,2.511-2.191,5.013-3.195,7.342-2.862,6.629-5.466,12.6-8.349,18.536Zm6.3-9.488v0c1.212-2.719,2.438-5.531,3.645-8.356,1.021-2.364,2.109-4.876,3.194-7.331,1.045-2.364,2.256-4.8,3.229-6.764l.5-1.008c.762-1.544,1.548-3.139,2.247-4.693.5-1.116,1.13-2.385,1.792-3.728l.135-.274c1.546-3.131,3.022-6.179,4.1-9.052-1.008,6.061-1.457,13.02-1.932,20.387-.349,5.41-.71,11-1.314,16.514a49.765,49.765,0,0,1-15.589,4.307Z" transform="translate(0.868 0.189)" fill="none"/></clipPath></defs><path d="M380.31,460c22.865-6.731,44.826-17.264,63.073-31.229,29.462-22.535,40.747-63.328,48.212-97.17,3.663-16.675,7.2-30.977,7.031-48.826-.122-14.066,1.25-28.613.642-42.533-1.493-33.642-17.639-70.734-44.115-92.307-31.632-25.78-45.92-47.837-51.979-88.245C399.98,38.336,394.928,31,376.786,18.891c-15-10.007-30.9-16.507-48.844-18.229A171.93,171.93,0,0,0,271.23,5.289c-8.3,2.094-18.13,6.267-26.6,6.939-15.332,1.219-34.845-3.51-50.422-5.021a212.1,212.1,0,0,0-60.132,2.658C96.14,17.108,53.532,43.929,33.55,77.23c-18.457,30.752-5.255,67.542,5.87,98.3,5.276,14.585,8.318,25.505.023,39.545-11.964,20.247-25.229,42.076-33.248,64.222-17.168,47.415,4.274,90.842,28.7,130.4,11.832,19.163,25.516,28.035,42.236,35.918,19.648,9.269,41.153,8.835,62.2,8.4,5.049-.1,10.069-.208,15.033-.179,33.286.2,66.479,3.439,99.766,3.972,26.99.436,50.49,12.134,78.274,10.578A212.843,212.843,0,0,0,380.31,460" transform="translate(0 0)" fill="#fff"/><path d="M257.333,7.2c0,3.972-57.6,7.2-128.663,7.2S0,11.172,0,7.2,57.611,0,128.67,0,257.333,3.226,257.333,7.2" transform="translate(145.772 452.372)" fill="#716c85"/><path d="M102.023,51.019A51.011,51.011,0,1,1,51.012,0a51,51,0,0,1,51.01,51.019" transform="translate(277.871 10.577)" fill="#ffd2d6"/><path d="M194.425,232.106l45.531-53.693a13.311,13.311,0,0,0,2.922-5.3l.182-.332-.076-.056a13.179,13.179,0,0,0-.519-8.026l-13.127-32.55.1-.059-2.429-5.854-4.722-12.019a13.455,13.455,0,0,0-1.306-2.5L214.7,96.58,140.345,57.575l-.333-.691L62.523,0,56.09.53C36.859,5.878,16.979,16.148,0,29.495l94.434,55.8-.453,1.2,4.358,28.434a42.068,42.068,0,0,0,8.573,19.719l26.356,33.387,37.943,62.384c.608-.427,1.2-.885,1.774-1.375,9.854-8.469,10.076-22.1,2.2-34.467,0,0-7.613-13.427-11.686-25.062-3.788-10.828-4.514-29.479,9.314-36.1l19.158-1.792c6.976,2.179,11.189,7.807,14,13.5l8.655,22.042a12.7,12.7,0,0,0,.807,1.663l-29.681,37.922a18.111,18.111,0,0,0,7.128,24.6c.507.281,1.03.531,1.545.757" transform="translate(62.152 14.808)" fill="#e7a588"/><path d="M12.552.028c13.238,0,23.97,13.9,23.97,31.05S25.79,62.13,12.552,62.13H0L.054,0l12.5.028" transform="translate(255.987 209.101)" fill="#fab93e"/><path d="M.55,32.778c-3.835,21.8,13.189,31.135,26.33,31.135,14.877,0,26.854-15.71,26.854-32.861S41.677,0,26.8,0C20.026,0,15.121,3.163,10.388,7.924c-.418.418,4.929,8.6.931,19.092C8.812,33.59,5.534,35.929,3.236,37.073c-.873.436-1.51-.854-1.946-2.142S.621,32.372.55,32.778" transform="translate(229.982 208.374)" fill="#ffc682"/><path d="M114.045,0C96.267,11.585,43.889,8.446,52.431,40.9,28.212,38.757,21.2,48.587,23.8,71.309c-.278-2.446-8.872-.359-10.069.446C11.719,73.087,9.375,77.2,8.281,79.38,4.844,86.323,4.7,94.035,4.132,101.625A191.065,191.065,0,0,1,0,128.5c14.514-19.47,70.052-21.741,59.167-44.215,8.646.682,24.6,2.826,31.163-4.5,8.4-9.387-2.413-18.253-10.5-22.394,33.247-5.83,29.045-20.2,23.733-36.429l5.538-7.321A38.086,38.086,0,0,0,114.045,0" transform="translate(363.313 313.065)" fill="#654ad2"/><path d="M10.122,175.46C6.429,158.41-3.8,147.774,6.186,129.535c3.988-7.293,11.141-10.6,15.672-16.769,5.66-7.693,3.281-10.092,4.549-19.443C29.15,73.156,42.5,72.38,53.525,59.392c7.691-9.057,9.444-21.613,18.958-30.821C82.136,19.21,97.257,12.59,103.264,0c-4.375,23.957.972,63.972-22.187,79.005,8.872,10.106,7.118,24.9-.851,34.748-3.8,4.7-12.708,6.793-15.59,12.05-3.941,7.188.747,8.72-.417,15.62-3.7,21.892-73.809,35.911-63.109,61.646l9.012-27.609" transform="translate(348.435 228.857)" fill="#fa7071"/><g transform="translate(376.004 228.667)"><path d="M0,170.144V139.952c4.543-7.742,8.973-15.474,12.708-22.016l.1-.172c.656-1.175,1.33-2.35,1.91-3.358l.316-.559.2-.36.47-.829h.781v-1.334q.807-1.374,1.616-2.744l.239-.406.227-.384c.7-.061,1.431-.091,2.188-.091a70.714,70.714,0,0,1,9.08.82l.09.012a74.938,74.938,0,0,0,8.8.818h.261c6.815,0,12.158-1.725,17.482-3.648.178-.45.326-.84.45-1.192a30.835,30.835,0,0,1-5.138,9.244c-1.733,2.139-4.567,3.765-7.307,5.337l-.034.019,0,0-.005,0,0,0a36.162,36.162,0,0,0-6.03,4A10.041,10.041,0,0,0,36.2,125.8a11.208,11.208,0,0,0-1.615,5.335,13.116,13.116,0,0,0,.638,3.616l0,.013,0,.013a15.78,15.78,0,0,1,.743,4.456,12.409,12.409,0,0,1-.191,2.187,15.116,15.116,0,0,1-3.456,6.991,39.921,39.921,0,0,1-7.124,6.573c-5.7,4.277-13.212,8.462-20.473,12.51l-.016.009-.006,0-.005,0-.218.122-.021.012-.171.1-.356.2-.074.041c-1.112.621-2.5,1.394-3.859,2.162ZM0,136.5v0H0V112.658H10.209a9.5,9.5,0,0,1,.92,4.524C6.878,124.645,3.342,130.782,0,136.5Zm12.639-21.976v0a13.6,13.6,0,0,0-.571-1.864H13.7c-.074.126-.144.25-.221.387l-.037.066-.047.084-.014.026c-.06.106-.122.215-.184.32-.142.269-.318.58-.554.981Zm3.855-6.651v0h0V83.144H14.722L4.046,78.109c2.678-3.342,5.99-5.829,9.5-8.463l.006,0,.005,0,.146-.109.125-.095c.61-.457,1.262-.949,1.9-1.441a42.057,42.057,0,0,0,1.91,13.127,53.177,53.177,0,0,0,2.825,6.374l.01.02.01.02.01.02.149.3.165.332.008.016,0,.01A43.362,43.362,0,0,1,23.8,95.2l.5-.152c-2.919,4.693-5.474,8.886-7.81,12.821Zm22.534-.272h-.3a70.818,70.818,0,0,1-8.661-.815l-.018,0a73.823,73.823,0,0,0-9.324-.825c-.387,0-.753.007-1.058.019,2.811-4.667,5.812-9.532,9.445-15.313l.051-.078a10.2,10.2,0,0,1,2.743-.305c1.149,0,2.34.1,3.559.2,1.132.1,2.414.212,3.7.212a15.1,15.1,0,0,0,1.544-.073c4.141-.416,11.071-1.112,16.337-4.2-.193-.513-.414-1.042-.677-1.618-4.352,2.632-10.446,3.545-15.834,4.091a12.439,12.439,0,0,1-1.337.061c-1.111,0-2.288-.1-3.426-.2h-.014l-.153-.013-.121-.01h-.01c-1.167-.1-2.374-.2-3.567-.2-.557,0-1.045.021-1.493.066,4.318-6.91,9.313-14.965,13.924-23.145.553.161,1.19.31,1.893.441a32.618,32.618,0,0,0,5.747.475A44.527,44.527,0,0,0,64.9,64.426c.309-.66.639-1.381.955-2.171a42.389,42.389,0,0,1-13.889,2.367,28.261,28.261,0,0,1-6.771-.742c1.336-2.385,2.692-4.91,4.028-7.509,1.755-3.447,3.581-7.3,5.747-12.123A53.1,53.1,0,0,0,71.129,40.1c0-.021.007-.042.01-.063l0-.009v-.015l0-.02v-.013l0-.019a.852.852,0,0,1,.014-.089c-1.141,9.392-2.846,16.56-5.362,22.558-3.113,7.421-7.418,12.842-13.162,16.572a23.936,23.936,0,0,1,5.92,16.017c0,.9-.027,1.6-.087,2.263a28.993,28.993,0,0,1-1.237,6.286l-.009.005C51.535,105.647,46.16,107.6,39.028,107.6ZM25.139,93.726v0a55.17,55.17,0,0,0-2.922-6.632l-.008-.016,0-.007-.011-.021-.014-.029a50.659,50.659,0,0,1-2.874-6.463c-1.627-4.806-1.807-9.318-1.858-13.9a53.489,53.489,0,0,0,7.638-7.263,43.171,43.171,0,0,0,5.33-8.211,62.816,62.816,0,0,0,6.476,23.545c-2.97,4.938-6.012,9.828-8.872,14.413l-.156.049.052.112-.278.439c-.836,1.324-1.653,2.628-2.5,3.984Zm12.83-20.78v0a60.677,60.677,0,0,1-5.936-25.006c.278-.579.553-1.161.82-1.723l.119-.252.105-.222,0-.005c2.8-5.911,5.686-12.024,10.9-17.095-1.2,12.411.378,20.793,4.689,24.913l-.121.246-.048.1-.071.145-.018.038-.018.037c-.238.484-.482.982-.732,1.465-2.728,5.325-5.9,11-9.687,17.363ZM49.479,51.895h0c-2.152-2.307-3.487-6.007-3.969-11A68.354,68.354,0,0,1,45.9,26.851c-.267.236-.506.449-.625.555a123.694,123.694,0,0,1,10.19-7.963l.005,0C60.68,15.651,66.064,11.734,70.156,7c-.269.576-.551,1.15-.8,1.658l-.056.114,0,.007c-.115.235-.229.467-.34.7-.667,1.336-1.327,2.7-1.961,4.055-.792,1.773-1.7,3.6-2.573,5.368l-.05.1-.086.174c-1.263,2.528-2.3,4.659-3.263,6.84-1.109,2.511-2.191,5.013-3.195,7.342-2.862,6.629-5.466,12.6-8.349,18.536Zm6.3-9.488v0c1.212-2.719,2.438-5.531,3.645-8.356,1.021-2.364,2.109-4.876,3.194-7.331,1.045-2.364,2.256-4.8,3.229-6.764l.5-1.008c.762-1.544,1.548-3.139,2.247-4.693.5-1.116,1.13-2.385,1.792-3.728l.135-.274c1.546-3.131,3.022-6.179,4.1-9.052-1.008,6.061-1.457,13.02-1.932,20.387-.349,5.41-.71,11-1.314,16.514a49.765,49.765,0,0,1-15.589,4.307Z" transform="translate(0.868 0.189)" fill="none"/><g clip-path="url(#a)"><path d="M0,170.144H74.826V0H0Z" transform="translate(0.868 0.189)" fill="#fc9b9c"/></g></g><path d="M9.792,66.984c.59-11.509,10.33-26.8,16.753-36.156C33.247,21.078,44.653,5.087,55.59,0c5,10.521-4.427,21.229-11.319,28.736C34.236,39.67,23.229,52.014,11.372,60.693c8.681-11.976,22.882-22.3,34.01-32.328C53.108,21.4,67.951,4.774,79.74,6.837,80.347,21.274,69.392,27.51,58.75,36.1c-9.965,8.054-20.8,14.028-32.413,19.415C16.441,60.1,9.01,66.47,0,71.505l9.792-4.521" transform="translate(363.852 348.134)" fill="#2a2b7c"/><path d="M0,67.993v0c.636-.484,1.2-.923,1.719-1.345v.01C1.168,67.1.59,67.545,0,67.992ZM14.69,51.179h0l0-.024c.438-.835.852-1.676,1.253-2.488l.031-.062.013-.024,0-.01,0-.006.135-.275.045-.091-.127.263-.034.069,0,.005-.076.156-.046.094-.031.064-.017.034c-.35.714-.746,1.522-1.149,2.3ZM54.43,7h0l0-.006,0,0c0-.006.008-.01.008-.013A31.792,31.792,0,0,0,59.01.183,31.563,31.563,0,0,1,54.431,7Zm4.464-5.822h0q.072-.418.144-.831c-.011.075-.023.15-.034.225-.03.189-.061.382-.1.573a.064.064,0,0,1-.009.026Z" transform="translate(392.602 228.857)" fill="#eef2ff"/><path d="M0,139.952V136.5c3.3-5.649,6.839-11.787,11.128-19.318a9.5,9.5,0,0,0-.92-4.524h1.858a13.82,13.82,0,0,1,.572,1.866c.215-.363.4-.685.555-.983.084-.143.165-.288.244-.428s.17-.3.26-.455h2.014c-.221.389-.446.786-.663,1.17l-.008.013-.32.565c-.611,1.06-1.265,2.2-1.91,3.358l-.1.172C9.008,124.418,4.6,132.1,0,139.949Zm16.493-28.627v-3.452c2.327-3.919,4.882-8.114,7.812-12.824l-.5.152a43.638,43.638,0,0,0-3-7.019l-.165-.332-.148-.3a53.7,53.7,0,0,1-2.855-6.434,42.061,42.061,0,0,1-1.91-13.126c.613-.467,1.175-.9,1.719-1.337.05,4.581.229,9.091,1.858,13.9a50.956,50.956,0,0,0,2.888,6.491l.011.021a55.359,55.359,0,0,1,2.934,6.656c.844-1.355,1.663-2.659,2.5-3.986l.278-.439-.052-.112.156-.049c2.857-4.579,5.9-9.465,8.872-14.413a62.814,62.814,0,0,1-6.476-23.545c.428-.821.843-1.669,1.244-2.489l.371-.756a60.666,60.666,0,0,0,5.937,25.008C41.76,66.585,44.93,60.9,47.656,55.581c.263-.51.519-1.032.766-1.537l.241-.491c-4.311-4.12-5.888-12.5-4.687-24.915l.069-.067.022-.025,0,0,.026-.03c.361-.354.733-.7,1.181-1.106l.625-.555A68.329,68.329,0,0,0,45.51,40.9c.481,4.991,1.817,8.692,3.97,11,2.894-5.958,5.494-11.92,8.35-18.536.943-2.187,2.059-4.77,3.195-7.342.965-2.188,2-4.317,3.263-6.84L64.373,19c.893-1.8,1.816-3.663,2.624-5.47.631-1.348,1.291-2.712,1.961-4.054q.191-.4.392-.8l.006-.012c.264-.538.536-1.095.8-1.661A31.537,31.537,0,0,0,74.74.183V.175a.058.058,0,0,1,.009-.025.056.056,0,0,0,.008-.024c.018-.009.018-.017.018-.026a.036.036,0,0,1,.008-.018.035.035,0,0,0,.009-.019.111.111,0,0,0,.017-.032A.112.112,0,0,1,74.826,0c-.065.373-.131.749-.208,1.2-1.076,2.873-2.552,5.921-4.1,9.052l-.135.274c-.663,1.344-1.288,2.612-1.792,3.727-.7,1.555-1.485,3.149-2.245,4.69l-.5,1.011c-.973,1.96-2.184,4.4-3.229,6.764-1.084,2.452-2.172,4.966-3.194,7.331-1.207,2.825-2.434,5.637-3.646,8.357A49.768,49.768,0,0,0,71.372,38.1q-.056.48-.113.961l-.1.817a1.059,1.059,0,0,0-.017.113,1.08,1.08,0,0,1-.017.114,53.116,53.116,0,0,1-16.163,4.144c-2.159,4.809-3.985,8.662-5.747,12.123-1.33,2.585-2.685,5.112-4.027,7.509a28.261,28.261,0,0,0,6.771.742A42.392,42.392,0,0,0,65.85,62.255c-.308.772-.656,1.53-.955,2.171A44.535,44.535,0,0,1,51.979,66.37a32.449,32.449,0,0,1-5.746-.475c-.7-.131-1.337-.279-1.893-.441-4.6,8.166-9.6,16.229-13.924,23.145.448-.045.937-.066,1.493-.066,1.159,0,2.388.1,3.576.2l.122.01.153.013c1.16.1,2.36.2,3.441.2a12.733,12.733,0,0,0,1.337-.061c5.388-.546,11.483-1.459,15.834-4.091.264.578.485,1.107.677,1.618-5.268,3.093-12.2,3.789-16.337,4.2a15.1,15.1,0,0,1-1.544.073c-1.234,0-2.543-.113-3.7-.212-1.246-.107-2.456-.2-3.56-.2a10.146,10.146,0,0,0-2.743.305l-.051.078c-3.668,5.839-6.669,10.705-9.445,15.313.357-.013.723-.019,1.058-.019a74.039,74.039,0,0,1,9.34.828,71.58,71.58,0,0,0,8.663.815h.3c7.146,0,12.522-1.957,18.212-4.029-.206.659-.456,1.355-.764,2.13-5.325,1.923-10.669,3.648-17.483,3.648h-.261a75.822,75.822,0,0,1-8.8-.818l-.09-.012a70.972,70.972,0,0,0-9.08-.82c-.77,0-1.506.031-2.188.091l-.242.411-.013.023q-.912,1.547-1.825,3.1Z" transform="translate(376.872 228.857)" fill="#fdb9ba"/><path d="M60.968,133.787c-5.622-3.509-11.639-6.743-13.951-13.608-3.207-9.509,2.918-10.547,6.887-18.684C39.643,95.978,27.057,95.459,17,80.988,7.1,66.74,15.218,55.881,31.213,57.483c2.2.219-12.783-10.417-15.34-12.233C10.22,41.23,5.626,34.78,2.791,28.521-2.343,17.185-1.325,1.815,13.789.108c13.1-1.479,19.852,12.519,25.484,22.309a77.25,77.25,0,0,1,6.95,15.017c6.507-5.91,8.531-16.248,18.566-9.469,7,4.733,9.585,17.623,6.771,25.144,10.271-1.187,15.771-4.071,24.559,2.134,5.681,4.009,11.535,11.222,15.519,17.639,9.071,14.611,25.8,69.7,29.125,87.792,0,0-68.03-19.543-79.8-26.887" transform="translate(56.121 290.198)" fill="#fa7071"/><path d="M108.946,151.13c-19.427-6.042-41.7-13.427-47.977-17.344-5.622-3.509-11.639-6.743-13.951-13.608a14.843,14.843,0,0,1-.9-4.719c0-5.467,4.592-7.417,7.785-13.965C39.644,95.977,27.057,95.458,17,80.988c-2.964-4.264-4.312-8.224-4.319-11.637-.017-7.241,6.009-12.024,15.476-12.024a30.56,30.56,0,0,1,3.056.156.389.389,0,0,0,.061,0c.108,0,.158-.035.158-.1-.005-1.089-13.177-10.439-15.559-12.132C10.22,41.229,5.627,34.78,2.792,28.521A30.536,30.536,0,0,1,0,16.189C0,8.274,3.84,1.231,13.79.108A16.878,16.878,0,0,1,15.684,0C27.556,0,33.92,13.109,39.274,22.417a77.25,77.25,0,0,1,6.95,15.017c5-4.54,7.352-11.693,12.722-11.693a10.7,10.7,0,0,1,5.844,2.224c5.127,3.467,7.885,11.309,7.889,18.212a20,20,0,0,1-1.118,6.932c4.349-.5,7.844-1.311,11.094-1.6-1.434,5.505-2.168,9.977-2.168,9.977a117.725,117.725,0,0,0,10.019-9.2,20.967,20.967,0,0,1,4.733,2.363c-5.856,7.769-10.774,19.243-10.774,19.243s10.658-6.549,17.847-13.168a74.4,74.4,0,0,1,6.635,8.115v82.3" transform="translate(56.121 290.199)" fill="#fc9b9c"/><path d="M.392,1.628l18.66.078,0-1.594L0,.03C.122.567.247,1.1.392,1.628" transform="translate(56.878 312.613)" fill="#fff"/><path d="M64.172,83.948,54.182,70.66,31.257,39.049,34.193,18.1q-.568-1-1.156-2.033l-3.123,22.3-6.168-8.816,3.488-22.78c-.392-.542-.8-1.073-1.215-1.59l-3.306,23.6L1.082,0A13.406,13.406,0,0,0,0,.936L52.4,70.655l-43.472-.09c.141.469.307.944.495,1.425l44.052.092,7.84,10.438-45-.094c.476.505.958.965,1.443,1.427l44.634.094,49.842,66.325c.781.238,1.557.474,2.314.7L64.172,83.948" transform="translate(60.593 293.447)" fill="#fff"/><path d="M7.995.335A9.167,9.167,0,0,0,6.5,0L0,42.845l1.521.2L7.995.335" transform="translate(109.366 316.02)" fill="#fff"/><path d="M74.986,141.642C21.524,120.729.207,1.476,0,.274L1.578,0C1.79,1.191,22.936,119.563,75.571,140.155l-.585,1.488" transform="translate(117.629 286.758)" fill="#654ad2"/><path d="M0,29.2C.031,29.734,1.007.239,14.373,0S.031,29.734.031,29.734L0,29.2" transform="translate(172.812 384.088)" fill="#654ad2"/><path d="M0,30.357S6.564-4.278,17.54.442,0,30.357,0,30.357" transform="translate(160.277 369.741)" fill="#654ad2"/><path d="M0,31.752S9.547-5.88,23.2.793C33.54,5.845,0,31.752,0,31.752" transform="translate(150.246 351.202)" fill="#654ad2"/><path d="M0,30.215S5.941-5.989,17.042.863,0,30.215,0,30.215" transform="translate(136.607 321.467)" fill="#654ad2"/><path d="M0,26.221S14.615-7.882,23.467,1.7C29.417,8.146,0,26.221,0,26.221" transform="translate(140.584 337.865)" fill="#654ad2"/><path d="M0,32.628S7.356-6.872,18.517,1.05,0,32.628,0,32.628" transform="translate(129.48 297.523)" fill="#654ad2"/><path d="M0,26.582S2.326-7.274,9.253,1.431,0,26.582,0,26.582" transform="translate(123.796 279.269)" fill="#654ad2"/><path d="M11.139,29.035S-7.033,1.715,3.044.064s8.1,28.97,8.1,28.97" transform="translate(108.966 268.466)" fill="#654ad2"/><path d="M25.855,16.037S-5.932,12.527.985,2.485s24.87,13.552,24.87,13.552" transform="translate(97.942 289.814)" fill="#654ad2"/><path d="M35.265,19.492S-1.848,16.275.072,3.322s35.193,16.17,35.193,16.17" transform="translate(92.274 304.88)" fill="#654ad2"/><path d="M44.125,19.793S-4.726,17.253.373,3.582,44.125,19.793,44.125,19.793" transform="translate(90.326 322.381)" fill="#654ad2"/><path d="M52.569,15.587S-1.25,19.759.022,4.7,52.569,15.587,52.569,15.587" transform="translate(88.236 343.882)" fill="#654ad2"/><path d="M51.679,3.091S1.356-6.313.025,7.685,51.679,3.091,51.679,3.091" transform="translate(101.988 384.536)" fill="#654ad2"/><path d="M45.5,6.868S2.777-7.894.107,5.866s45.394,1,45.394,1" transform="translate(98.066 363.997)" fill="#654ad2"/><path d="M39.39.239S-4.662-2.57.406,11.057,40.613,2.849,40.613,2.849L39.39.239" transform="translate(119.664 397.249)" fill="#654ad2"/><path d="M0,138.021H211.806V0H0Z" transform="translate(165.067 322.417)" fill="#ff4d5f"/><path d="M242.184,21.122H0L49.078,0h148.3l44.806,21.122" transform="translate(150.018 291.167)" fill="#ff4d5f"/><path d="M142.1,6.679H0L28.8,0h87.013L142.1,6.679" transform="translate(204.522 298.636)" fill="#2e3054"/><path d="M0,29.514H244.792V0H0Z" transform="translate(148.574 312.001)" fill="#fa7071"/><path d="M244.792,29.514H0V0H0V3.472H244.792V29.514" transform="translate(148.574 312.001)" fill="#dc2f40"/><path d="M0,3.472H244.792V0H0Z" transform="translate(148.574 312.001)" fill="#bd1f2f"/><path d="M80.943,40.47A40.471,40.471,0,1,1,40.474,0,40.473,40.473,0,0,1,80.943,40.47" transform="translate(338.794 163.554)" fill="#e8e3ff"/><path d="M6.05,24.915l-.267-3.042a9.605,9.605,0,0,1-4.948-.939l.582-2.076a8.845,8.845,0,0,0,4.661.929c2.241-.181,3.644-1.538,3.491-3.255-.146-1.658-1.465-2.583-3.88-3.3C2.361,12.281.25,11.057.019,8.438-.2,5.936,1.495,3.889,4.359,3.2L4.089.158,6.045,0l.26,2.925a8.8,8.8,0,0,1,4.2.722L9.885,5.7a7.977,7.977,0,0,0-4.068-.7C3.387,5.191,2.6,6.651,2.7,7.859c.141,1.564,1.377,2.253,4.219,3.12,3.366,1,5.144,2.436,5.382,5.12.212,2.377-1.33,4.748-4.538,5.523l.278,3.135-1.99.158" transform="translate(122.803 176.853)" fill="#fff"/><path d="M15.781,16.753A8.808,8.808,0,0,0,13.3,20.076c-.226.545-.712,1.962-1.128,3.208l.069.2L0,23.347,9.7,2.67l.712-.79A6.387,6.387,0,0,1,14.948,0H32.431V.266a4.763,4.763,0,0,1-4.757,4.762H23l4.253.03H23.021a.616.616,0,0,0-.608.618V8.856a.617.617,0,0,0,.608.618H36.094l.139.026,7.431-7.477a4.034,4.034,0,0,1,5.712,0l.156.156-7.1,7.113-6.441,6.46H20.33l-.851-.005a5.352,5.352,0,0,0-4.184,1.63l.486-.623" transform="translate(355.275 202.806)" fill="#fff"/><path d="M11.858,22.1h0l-.885-.818c-.364-.334-7.946-7.4-8.993-8.555A7.808,7.808,0,0,1,0,7.483C0,3.357,3.1,0,6.909,0a6.561,6.561,0,0,1,4.948,2.255A6.62,6.62,0,0,1,16.806,0c3.81,0,6.909,3.357,6.909,7.483A7.828,7.828,0,0,1,22.17,12.2c-.922,1.243-6.82,6.7-9.313,8.987l-.114.1-.885.81ZM6.909,2.6A4.624,4.624,0,0,0,2.6,7.483a5.2,5.2,0,0,0,1.3,3.495c.728.8,5.531,5.309,7.969,7.58,3.409-3.145,7.61-7.106,8.23-7.92a5.277,5.277,0,0,0,1.007-3.154A4.624,4.624,0,0,0,16.806,2.6a4.268,4.268,0,0,0-3.767,2.538L11.858,7.557,10.695,5.141A4.282,4.282,0,0,0,6.909,2.6Z" transform="translate(377.393 176.645)" fill="#fff"/><path d="M37.3,46.5h0l-19.937-.248L1.486,27.509A5.129,5.129,0,0,1,0,23.881a5.223,5.223,0,0,1,1.521-3.733,5.289,5.289,0,0,1,3.747-1.511,5.279,5.279,0,0,1,3.7,1.469l.536.637V5.264a5.264,5.264,0,1,1,10.527,0V16.672l10.695,2.347A8.542,8.542,0,0,1,37.3,27.062V46.5ZM5.286,21.239a2.686,2.686,0,0,0-1.912.74,2.661,2.661,0,0,0,.021,3.762L18.583,43.66l16.113.2v-16.8a5.921,5.921,0,0,0-4.5-5.495l-12.766-2.8V5.264a2.66,2.66,0,0,0-5.32,0V27.9L7.052,21.868A2.584,2.584,0,0,0,5.286,21.239Z" transform="translate(306.73 58.636)" fill="#fff"/><path d="M66.538,30.891H31.571v-2.6H66.538a4.161,4.161,0,0,0,4.41-3.842v-18A4.16,4.16,0,0,0,66.538,2.6H7.017A4.161,4.161,0,0,0,2.6,6.446v18a4.162,4.162,0,0,0,4.413,3.842H23.135v2.6H7.017C3.148,30.891,0,28,0,24.444v-18C0,2.891,3.148,0,7.017,0H66.538a6.752,6.752,0,0,1,7.014,6.446v18a6.754,6.754,0,0,1-7.014,6.446" transform="translate(294.466 35.829)" fill="#fff"/><path d="M2.775,11.005A21.4,21.4,0,0,1,0,10.846V.224A22.136,22.136,0,0,1,3.306,0,7.022,7.022,0,0,1,7.736,1.155,4.778,4.778,0,0,1,9.564,5.231a5.448,5.448,0,0,1-1.8,4.38A7.714,7.714,0,0,1,2.775,11.005Zm.787-9.129a4.973,4.973,0,0,0-1.105.1V9.05a4.628,4.628,0,0,0,.849.047h.041a3.59,3.59,0,0,0,2.631-.93,3.865,3.865,0,0,0,.987-2.854,3.421,3.421,0,0,0-.881-2.535A3.456,3.456,0,0,0,3.562,1.877Z" transform="translate(302.807 45.898)" fill="#fff"/><path d="M5.087,11.17a4.819,4.819,0,0,1-3.747-1.6A5.889,5.889,0,0,1,0,5.663C0,2.329,2.165,0,5.264,0,8.809,0,10.4,2.748,10.4,5.472,10.4,8.933,8.312,11.17,5.087,11.17ZM5.2,1.941c-1.564,0-2.614,1.477-2.614,3.675s1.033,3.61,2.632,3.61A2.241,2.241,0,0,0,7.134,8.177a4.69,4.69,0,0,0,.68-2.625C7.814,3.813,7,1.941,5.2,1.941Z" transform="translate(313.484 45.801)" fill="#fff"/><path d="M0,10.813V0H2.854L5.1,3.962A31.1,31.1,0,0,1,6.866,7.668c-.111-1.429-.16-2.889-.16-4.509V0H8.951V10.813H6.385L4.073,6.641A41.217,41.217,0,0,1,2.2,2.823c.016,1.444.049,2.967.049,4.734v3.255H0" transform="translate(325.492 45.98)" fill="#fff"/><path d="M2.532,10.813H0L3.306,0h3.2L9.866,10.811H7.234L6.4,8.038H3.306l-.773,2.775Zm2.3-8.985c-.107.353-.2.763-.3,1.159-.078.332-.152.645-.231.925l-.644,2.3H6.047l-.676-2.3c-.16-.531-.319-1.176-.459-1.746V2.16Z" transform="translate(335.784 45.98)" fill="#fff"/><path d="M2.9,2.052H0V0H8.311V2.052H5.361v8.76H2.9V2.052" transform="translate(344.947 45.98)" fill="#fff"/><path d="M6.441,6.24H2.448V8.806H6.892v2.007H0V0H6.667V2.005H2.448V4.25H6.441V6.24" transform="translate(354.563 45.98)" fill="#fff"/><path d="M20.833,10.417A10.417,10.417,0,1,1,10.417,0,10.417,10.417,0,0,1,20.833,10.417" transform="translate(326.235 130.287)" fill="#fff"/><path d="M19.675,9.839A9.838,9.838,0,1,1,9.839,0a9.84,9.84,0,0,1,9.837,9.839" transform="translate(173.458 248.343)" fill="#fff"/><path d="M23.727,47.453A23.727,23.727,0,1,1,47.455,23.726,23.729,23.729,0,0,1,23.727,47.453" transform="translate(40.355 89.778)" fill="#ffeef0"/><path d="M1.939,46A23.346,23.346,0,0,1,0,40.083L34.554,0c1.628.007,3.24.075,4.8.238L1.939,46" transform="translate(230.454 212.226)" fill="#ffe3c1"/><path d="M14.271,54.983A26.771,26.771,0,0,1,0,46.066L39.708,0a31.92,31.92,0,0,1,7.865,14.257l-33.3,40.726" transform="translate(235.018 216.315)" fill="#ffe3c1"/><path d="M195.241,164.7l-13.127-32.55.1-.059-2.429-5.854-4.722-12.019a13.454,13.454,0,0,0-1.306-2.5L167.474,96.58,93.122,57.575l-.333-.691L15.3,0,8.866.53C5.922,1.349,2.962,2.3,0,3.34c23.788,13.12,43.158,34,66.063,48.408,24.009,15.1,49.786,27.113,75.566,39.931,17.457,8.679,27.738,17.625,35.8,35.161,6,13.04,8.675,35.026,17.333,48.533a13.319,13.319,0,0,0,.889-2.26l.182-.332-.076-.056a13.179,13.179,0,0,0-.519-8.026" transform="translate(109.376 14.808)" fill="#ecb49f"/><path d="M21.392,61.078S13.78,47.651,9.707,36.016C5.932,25.229,5.208,6.684,18.875,0,1.969-.009-3.6,30.9,2.247,44.585c6.667,15.6,19.328,26.866,22.5,43.847,3.915-8.005,2.582-18.038-3.354-27.354" transform="translate(215.94 148.299)" fill="#ecb49f"/><path d="M100.538,128.6l-8.932-14.686L65.25,80.531a42.068,42.068,0,0,1-8.573-19.719L52.319,32.378l.453-1.2L0,0C1.059.372,2.075.753,3,1.16c7.089,3.1,13.189,7.149,19.979,10.852,10.766,5.877,23,9.491,33.852,15.1,9.438,4.88,7.432,8.03,7.854,18.024.313,7.373,1.1,13.222,3.5,19.917,4.929,13.747,13.028,25.448,20.227,38A161.352,161.352,0,0,1,100.538,128.6" transform="translate(103.813 68.917)" fill="#dd8b61"/></svg>