<svg xmlns="http://www.w3.org/2000/svg" width="32" height="32" viewBox="0 0 32 32"><rect width="32" height="32" fill="none"/><g transform="translate(1 4)"><path d="M22.478,24.554a1.693,1.693,0,0,1-.446-3.326v-1.8A16.139,16.139,0,0,1,15,21.056,16.055,16.055,0,0,1,5,17.545a.441.441,0,0,1-.167-.347V13.5a.445.445,0,1,1,.891,0v3.477a15.1,15.1,0,0,0,16.309,1.444V11.374l-6.873,2.621a.452.452,0,0,1-.318,0L5.723,10.518v1.2a.445.445,0,1,1-.891,0V10.178L.287,8.446A.448.448,0,0,1,0,8.03V5.995a.449.449,0,0,1,.287-.417L14.841.03a.44.44,0,0,1,.318,0L18.6,1.34a.445.445,0,0,1,.258.575.45.45,0,0,1-.418.286.457.457,0,0,1-.158-.029L15,.923,1.7,5.995,15,11.067l6.319-2.409-6.5-2.945a.448.448,0,0,1-.233-.248.447.447,0,0,1,.418-.6.448.448,0,0,1,.184.04l7.309,3.309L28.3,5.995l-8.4-3.2a.443.443,0,0,1-.248-.235.434.434,0,0,1-.01-.34.447.447,0,0,1,.417-.287.481.481,0,0,1,.158.029l9.487,3.617A.449.449,0,0,1,30,5.995V8.029a.449.449,0,0,1-.286.417l-4.545,1.733V17.2a.441.441,0,0,1-.167.347,15.835,15.835,0,0,1-2.079,1.409v2.273a1.693,1.693,0,0,1-.445,3.326Zm0-2.495a.8.8,0,1,0,.8.8A.8.8,0,0,0,22.478,22.059Zm1.8-11.541-1.354.516v6.885a15.015,15.015,0,0,0,1.354-.939ZM22.032,9.339l-6.586,2.512v1.08l6.586-2.511ZM.891,6.641V7.722l13.664,5.209v-1.08Zm28.218,0L22.923,9v1.081l6.186-2.359Z" transform="translate(0 0)" fill="#654ad2"/></g></svg>