<svg xmlns="http://www.w3.org/2000/svg" width="32" height="32" viewBox="0 0 32 32"><rect width="32" height="32" fill="none"/><g transform="translate(1 1)"><path d="M18.76,16.452a7.436,7.436,0,0,1-1.8-.222l-8.789-2.2H7.742V15H0V7.259H7.742v.967h.406L10.316,7.5a8.126,8.126,0,0,1-.638-3.147V0H30V4.355a8.216,8.216,0,0,1-1.326,4.471,1.959,1.959,0,0,1,.2,3.625l-6.934,3.284A7.484,7.484,0,0,1,18.76,16.452ZM7.742,9.194v3.877l.6.008,8.847,2.212a6.42,6.42,0,0,0,1.556.19,6.539,6.539,0,0,0,2.783-.62l6.933-3.284a1,1,0,0,0-.427-1.9h-.2a1,1,0,0,0-.336.058l-6.248,2.231a1.9,1.9,0,0,1-1.4.614h-.225a1.912,1.912,0,0,1-.712-.137L14.337,10.61l.359-.9,4.582,1.833a.945.945,0,0,0,.353.068h.225a.945.945,0,0,0,.8-.434l-.007-.022.024-.009A.943.943,0,0,0,20.2,9.776l-4.166-1.6a6.493,6.493,0,0,0-4.368-.1L8.3,9.194Zm-4.838,0h.967v4.838h2.9V8.226H5.807v4.838H4.838V8.226H.968v5.806H2.9V9.194Zm10.8-2.417a7.4,7.4,0,0,1,2.672.494l4.165,1.6a1.929,1.929,0,0,1,1.23,1.79.333.333,0,0,1-.005.05v.01a.233.233,0,0,0,0,.034l5.412-1.933a1.965,1.965,0,0,1,.38-.09,7.191,7.191,0,0,0,1.456-3.9H13.549V3.871H29.032V2.9H27.1V1.936h1.935V.968H10.645v.968H26.129V2.9H10.645v.967H12.58v.967H10.673A7.163,7.163,0,0,0,11.236,7.2l.122-.041A7.417,7.417,0,0,1,13.707,6.776Z" transform="translate(0 13.548)" fill="#654ad2"/><path d="M1.935,6.774a.969.969,0,0,1-.968-.968H0A1.933,1.933,0,0,0,1.452,7.673V8.71h.968V7.673a1.931,1.931,0,0,0-.484-3.8A.968.968,0,1,1,2.9,2.9h.968A1.933,1.933,0,0,0,2.419,1.036V0H1.452V1.036a1.931,1.931,0,0,0,.484,3.8.968.968,0,1,1,0,1.935Z" transform="translate(18.387 1.935)" fill="#654ad2"/><path d="M6.29,12.58a6.29,6.29,0,1,1,6.29-6.29A6.3,6.3,0,0,1,6.29,12.58ZM6.29.968A5.323,5.323,0,1,0,11.613,6.29,5.329,5.329,0,0,0,6.29.968Z" transform="translate(14.032)" fill="#654ad2"/></g></svg>