<svg xmlns="http://www.w3.org/2000/svg" width="32" height="32" viewBox="0 0 32 32"><rect width="32" height="32" fill="none"/><g transform="translate(1 2)"><path d="M2.495,4.99A2.495,2.495,0,1,1,4.99,2.495,2.5,2.5,0,0,1,2.495,4.99ZM2.495,1a1.5,1.5,0,1,0,1.5,1.5A1.5,1.5,0,0,0,2.495,1Z" transform="translate(4.003 17.968)" fill="#654ad2"/><path d="M1.5,2.993a1.5,1.5,0,1,1,1.5-1.5A1.5,1.5,0,0,1,1.5,2.993Zm0-2a.5.5,0,1,0,.5.5A.5.5,0,0,0,1.5,1Z" transform="translate(18.972 21.96)" fill="#654ad2"/><path d="M6.493,26.964A6.493,6.493,0,0,1,5,14.153V2.993H.51a.5.5,0,0,1-.5-.5V.5A.5.5,0,0,1,.51,0H7.5a.5.5,0,0,1,.5.5V6.986h1.09a1.483,1.483,0,0,1,1.4-2h7.984a1.5,1.5,0,0,1,1.5,1.5,1.423,1.423,0,0,1-.092.5h.59a1.5,1.5,0,0,1,1.5,1.5v2.495h2.495a1.5,1.5,0,0,1,1.5,1.5v5.539l3.414-.543a.33.33,0,0,1,.08-.006.5.5,0,0,1,.5.5v2a.5.5,0,0,1-.417.492l-5.988,1a.372.372,0,0,1-.082.006.592.592,0,0,1-.152-.027A3.495,3.495,0,1,1,18.972,20.3V15.967h-7.8a6.493,6.493,0,0,1-4.675,11Zm13.976-6.007a2.495,2.495,0,1,0,2.495,2.495A2.5,2.5,0,0,0,20.469,20.957ZM6.5,14.969a5.489,5.489,0,1,0,5.489,5.488A5.494,5.494,0,0,0,6.5,14.969Zm15.468-1h0V20.3a3.48,3.48,0,0,1,1.013.728.49.49,0,0,1-.016-.072V13.971h-1Zm0-2h0v1h1.5a.5.5,0,0,1,.5.5v6.895l4.99-.832v-.988l-3.414.544a.5.5,0,0,1-.4-.113.5.5,0,0,1-.175-.38V12.474a.5.5,0,0,0-.5-.5H21.966Zm-1.5,7.983a3.236,3.236,0,0,1,.5.04V15.967h-1V20A3.033,3.033,0,0,1,20.469,19.958ZM7.995,11.975v2.177a6.387,6.387,0,0,1,1.949.82l.015,0H20.968V11.975Zm-1.5,2c.165,0,.339.013.473.023L7,14V1H4V2H5.5a.5.5,0,0,1,.5.5V14l.038,0C6.227,13.978,6.356,13.971,6.5,13.971Zm1.5-5.988v1H19.472a.5.5,0,0,1,.5.5v1.5h1V8.483a.5.5,0,0,0-.5-.5Zm0,2v1H18.972v-1ZM10.49,5.988a.5.5,0,0,0,0,1h7.984a.5.5,0,0,0,0-1ZM1.01,1V2h2V1Z" transform="translate(0 0.006)" fill="#654ad2"/></g></svg>