<svg xmlns="http://www.w3.org/2000/svg" width="63.874" height="63.889" viewBox="0 0 63.874 63.889"><g transform="translate(-0.007)"><path d="M50.759,10.188,30.809,22.335a7.315,7.315,0,0,1-3.162,1.043,5.367,5.367,0,0,1-.713.043H0V0H2.981A9.751,9.751,0,0,1,9.049,2.129a9.749,9.749,0,0,0,6.068,2.129h5.568a5.312,5.312,0,0,1,4.567,2.587l.1.159a3.852,3.852,0,0,1-.585,4.706h2.5a4.2,4.2,0,0,0,1.352-.224l16.512-5.5,3.194-1.064a2.932,2.932,0,0,1,3.257,1.022v.011a2.906,2.906,0,0,1-.82,4.237Z" transform="translate(10.653 38.339)" fill="#dad1ff"/><path d="M47.566,10.178,27.647,22.3a5.367,5.367,0,0,1-.713.043H0V0A9.711,9.711,0,0,1,5.855,2.119a9.754,9.754,0,0,0,6.068,2.129h5.568a5.31,5.31,0,0,1,4.567,2.587l.1.16a3.851,3.851,0,0,1-.586,4.705h2.5a4.181,4.181,0,0,0,1.352-.223l3.194-1.065,16.512-5.5A2.934,2.934,0,0,1,48.385,5.93v.011a2.907,2.907,0,0,1-.82,4.237Z" transform="translate(10.653 39.414)" fill="#f3f0ff"/><path d="M2.129,0H7.452A2.129,2.129,0,0,1,9.581,2.129V24.485a2.129,2.129,0,0,1-2.129,2.129H2.129A2.129,2.129,0,0,1,0,24.485V2.129A2.129,2.129,0,0,1,2.129,0Z" transform="translate(1.072 36.21)" fill="#f3f0ff"/><path d="M38.325,19.163c0,.351-.011.713-.032,1.065a18.917,18.917,0,0,1-2.64,8.687,16.276,16.276,0,0,1-1.331,1.959A19.073,19.073,0,0,1,21.355,38.2c-.372.043-.756.075-1.128.1a2.9,2.9,0,0,1-.3.011c-.255.021-.511.021-.767.021s-.511,0-.767-.021a2.89,2.89,0,0,1-.3-.011c-.181-.011-.351-.021-.533-.042-.2-.011-.4-.032-.6-.054A19.075,19.075,0,0,1,4,30.873a16.272,16.272,0,0,1-1.33-1.959,18.912,18.912,0,0,1-2.64-8.687C.01,19.876,0,19.514,0,19.163s.01-.713.032-1.065a18.912,18.912,0,0,1,2.64-8.687A16.272,16.272,0,0,1,4,7.452,19.075,19.075,0,0,1,16.969.128c.192-.021.394-.043.6-.054.181-.021.351-.032.533-.042a2.89,2.89,0,0,1,.3-.011C18.652,0,18.907,0,19.162,0s.511,0,.767.021a2.9,2.9,0,0,1,.3.011c.372.021.756.053,1.128.1A19.073,19.073,0,0,1,34.322,7.452a16.276,16.276,0,0,1,1.331,1.959,18.917,18.917,0,0,1,2.64,8.687c.021.351.032.713.032,1.065Z" transform="translate(20.234 1.078)" fill="#dad1ff"/><path d="M35.131,19.088c0,.351-.011.713-.032,1.065a18.918,18.918,0,0,1-2.64,8.687A16.22,16.22,0,0,1,31.128,30.8a19.073,19.073,0,0,1-12.966,7.324c-.192.021-.394.043-.6.054-.2-.011-.4-.032-.6-.054A19.075,19.075,0,0,1,4,30.8a16.272,16.272,0,0,1-1.33-1.959,18.912,18.912,0,0,1-2.64-8.687C.01,19.8,0,19.44,0,19.088s.01-.713.032-1.065a18.912,18.912,0,0,1,2.64-8.687A16.272,16.272,0,0,1,4,7.378,19.075,19.075,0,0,1,16.969.054c.192-.021.394-.043.6-.054.2.011.4.032.6.054A19.073,19.073,0,0,1,31.128,7.378a16.22,16.22,0,0,1,1.331,1.959,18.918,18.918,0,0,1,2.64,8.687C35.12,18.375,35.131,18.737,35.131,19.088Z" transform="translate(20.234 1.153)" fill="#f3f0ff"/><path d="M.25.256C.172.135.086.077,0,.086a.4.4,0,0,1,.5,0C.414.077.328.135.25.256Z" transform="translate(39.184 0.014)" fill="#428dff"/><path d="M2.129,1.064A1.065,1.065,0,1,1,1.064,0,1.065,1.065,0,0,1,2.129,1.064Z" transform="translate(4.266 39.404)" fill="#654ad2"/><path d="M2.129,26.615H5.323a2.129,2.129,0,0,1-2.129-2.129V2.129A2.129,2.129,0,0,1,5.323,0H2.129A2.129,2.129,0,0,0,0,2.129V24.485A2.129,2.129,0,0,0,2.129,26.615Z" transform="translate(1.072 36.21)" fill="#fff"/><path d="M4,7.452a16.272,16.272,0,0,0-1.33,1.959A18.912,18.912,0,0,0,.032,18.1C.01,18.449,0,18.811,0,19.163s.01.713.032,1.065a18.912,18.912,0,0,0,2.64,8.687A16.272,16.272,0,0,0,4,30.873,19.075,19.075,0,0,0,16.969,38.2c.192.021.394.043.6.054.181.021.351.032.533.042a2.89,2.89,0,0,0,.3.011c.256.021.511.021.767.021s.511,0,.767-.021a2.9,2.9,0,0,0,.3-.011c.17-.01.344-.03.517-.044-.2-.012-.395-.032-.581-.052A19.073,19.073,0,0,1,7.2,30.873a16.276,16.276,0,0,1-1.331-1.959,18.917,18.917,0,0,1-2.64-8.687c-.021-.351-.032-.713-.032-1.065s.011-.713.032-1.065a18.917,18.917,0,0,1,2.64-8.687A16.276,16.276,0,0,1,7.2,7.452,19.073,19.073,0,0,1,20.163.128c.187-.021.384-.042.581-.053C20.571.062,20.4.042,20.227.032a2.9,2.9,0,0,0-.3-.011C19.673,0,19.418,0,19.162,0s-.511,0-.767.021a2.89,2.89,0,0,0-.3.011c-.181.011-.351.021-.533.042-.2.011-.4.032-.6.054A19.075,19.075,0,0,0,4,7.452Z" transform="translate(20.234 1.078)" fill="#fff"/><path d="M.5,0A1.531,1.531,0,0,1,0,1.065H.5Z" transform="translate(13.552 60.695)" fill="#fff"/><path d="M.061,6.863c-.022.023-.038.05-.061.074H2.5a4.2,4.2,0,0,0,1.352-.224l16.512-5.5,2.4-.8a2.911,2.911,0,0,0-2.4-.266L17.172,1.209.66,6.713A4.135,4.135,0,0,1,.061,6.863Z" transform="translate(38.609 43.113)" fill="#fff"/><path d="M.5.086a.4.4,0,0,0-.5,0c.086-.01.172.049.25.17C.328.135.414.077.5.086Z" transform="translate(39.184 0.014)" fill="#fff"/><path d="M2.129,0V22.356H0V0Z" transform="translate(0.007 38.339)" fill="#fff"/><path d="M1.059,2.129a1.121,1.121,0,0,0,.756-.309,1.079,1.079,0,0,0,0-1.512L1.655.181a.782.782,0,0,0-.192-.1A.668.668,0,0,0,1.272.021,1.65,1.65,0,0,0,1.059,0,1.119,1.119,0,0,0,.3.308,1.1,1.1,0,0,0,.079.66,1.087,1.087,0,0,0,.3,1.82a1.088,1.088,0,0,0,.351.224A1.067,1.067,0,0,0,1.059,2.129Z" transform="translate(0.013 45.791)" fill="#654ad2"/><path d="M8.517,28.744H3.194A3.2,3.2,0,0,1,0,25.55V15.969a1.065,1.065,0,0,1,2.129,0V25.55a1.066,1.066,0,0,0,1.065,1.065H8.517A1.066,1.066,0,0,0,9.581,25.55V3.194A1.066,1.066,0,0,0,8.517,2.129H3.194A1.066,1.066,0,0,0,2.129,3.194V7.452A1.065,1.065,0,1,1,0,7.452V3.194A3.2,3.2,0,0,1,3.194,0H8.517a3.2,3.2,0,0,1,3,2.129h2.112a10.855,10.855,0,0,1,6.732,2.363,8.719,8.719,0,0,0,5.4,1.9h5.57a6.422,6.422,0,0,1,5.473,3.105l.1.16a4.87,4.87,0,0,1,.4,4.19h.611a3.185,3.185,0,0,0,1.012-.164L58.626,7.112A3.973,3.973,0,0,1,63.071,8.5c.021.028.042.058.061.09a3.929,3.929,0,0,1,.666,3.059,4,4,0,0,1-1.84,2.646L42.008,26.438A8.508,8.508,0,0,1,37.58,27.68H10.88A3.179,3.179,0,0,1,8.517,28.744ZM11.711,4.259V25.55H37.58a6.382,6.382,0,0,0,3.322-.932L60.857,12.471a1.85,1.85,0,0,0,.518-2.693c-.026-.035-.045-.063-.061-.09a1.836,1.836,0,0,0-2.01-.562L39.6,15.7a5.29,5.29,0,0,1-1.676.273H28.443A8.464,8.464,0,0,0,23.727,17.4l-.779.52a1.065,1.065,0,1,1-1.182-1.772l.78-.519a10.577,10.577,0,0,1,5.9-1.789h6.476a2.769,2.769,0,0,0,.16-3.1l-.1-.158a4.3,4.3,0,0,0-3.65-2.066H25.763A10.856,10.856,0,0,1,19.03,6.154a8.712,8.712,0,0,0-5.4-1.9Z" transform="translate(0.007 35.145)" fill="#654ad2"/><path d="M2.129,8.517V1.064A1.065,1.065,0,0,0,0,1.064V8.517a1.065,1.065,0,1,0,2.129,0Z" transform="translate(4.266 43.662)" fill="#654ad2"/><path d="M20.227,40.472a1,1,0,0,1-.141-.007.938.938,0,0,0-.141-.007h-.016l-.014,0H19.9a.053.053,0,0,0-.024,0A20.228,20.228,0,0,1,5.985,5.863a20.227,20.227,0,0,1,28.727,28.48,20.1,20.1,0,0,1-14.138,6.107l-.015,0h-.008a.114.114,0,0,1-.024,0H20.51a.828.828,0,0,0-.122.006h-.014A1.137,1.137,0,0,1,20.227,40.472Zm7.956-8.52a22.674,22.674,0,0,1-4.327,6.021A18.186,18.186,0,0,0,34,31.952H28.183Zm-21.729,0A18.18,18.18,0,0,0,16.6,37.973a22.7,22.7,0,0,1-4.327-6.021Zm14.837,0v5.491a20.115,20.115,0,0,0,4.491-5.491Zm-6.62,0a20.089,20.089,0,0,0,4.491,5.491V31.952ZM30.843,21.306a26.392,26.392,0,0,1-1.728,8.517h6.442a18,18,0,0,0,2.714-8.517Zm-9.552,0v8.517h5.536a24.11,24.11,0,0,0,1.887-8.517Zm-9.556,0a24.028,24.028,0,0,0,1.892,8.517h5.536V21.306Zm-9.556,0h0A17.987,17.987,0,0,0,4.9,29.822h6.441a26.383,26.383,0,0,1-1.727-8.517H2.179ZM29.115,10.66h0a26.392,26.392,0,0,1,1.728,8.517h7.423a17.949,17.949,0,0,0-2.709-8.517H29.115Zm-7.824,0v8.517h7.423a24.1,24.1,0,0,0-1.887-8.517Zm-7.664,0a24.134,24.134,0,0,0-1.888,8.517h7.424V10.66Zm-8.73,0a18.083,18.083,0,0,0-2.714,8.517H9.607a26.277,26.277,0,0,1,1.728-8.517H4.9Zm18.958-8.15a22.654,22.654,0,0,1,4.327,6.022H34A18.186,18.186,0,0,0,23.855,2.509Zm-2.564.53V8.531h4.491A20.106,20.106,0,0,0,21.291,3.039Zm-2.129,0a20.086,20.086,0,0,0-4.491,5.492h4.491ZM16.6,2.509A18.179,18.179,0,0,0,6.454,8.531h5.818A22.688,22.688,0,0,1,16.6,2.509Z" transform="translate(19.17)" fill="#654ad2"/></g></svg>