<svg xmlns="http://www.w3.org/2000/svg" width="32" height="32" viewBox="0 0 32 32"><rect width="32" height="32" fill="none"/><g transform="translate(1 1)"><path d="M5.5,16.5a.5.5,0,0,0,.353-.853L1.825,11.62A2.874,2.874,0,0,1,1,9.5V2A1,1,0,0,1,3,2V5.958a.5.5,0,1,0,1,0V2A2,2,0,0,0,0,2V9.5a3.861,3.861,0,0,0,1.147,2.854l4,4A.5.5,0,0,0,5.5,16.5Z" transform="translate(0 9)" fill="#654ad2"/><path d="M8.5,0H.5A.5.5,0,0,0,0,.5v2a.5.5,0,0,0,1,0V1H8V2.5a.5.5,0,0,0,1,0V.5A.5.5,0,0,0,8.5,0Z" transform="translate(3 27)" fill="#654ad2"/><path d="M0,1.961A2.051,2.051,0,0,0,.618,3.324l2.5,2.5a.5.5,0,0,0,.707-.707l-2.5-2.5A1.055,1.055,0,0,1,1,1.921a.861.861,0,0,1,.263-.656A.863.863,0,0,1,1.921,1a1.058,1.058,0,0,1,.7.324L6.141,4.847a2.928,2.928,0,0,1,.831,2.124v2.5a.5.5,0,1,0,1,0v-2.5A3.928,3.928,0,0,0,6.825,4.117l-3.5-3.5A2.051,2.051,0,0,0,1.962,0a1.859,1.859,0,0,0-1.4.556A1.86,1.86,0,0,0,0,1.961Z" transform="translate(3.029 16.029)" fill="#654ad2"/><path d="M1.172,4.093A3.937,3.937,0,0,0,0,6.971v2.5a.5.5,0,0,0,1,0v-2.5a2.932,2.932,0,0,1,.853-2.147l3.5-3.5A1.058,1.058,0,0,1,6.05,1a.86.86,0,0,1,.656.263.864.864,0,0,1,.264.621,1.041,1.041,0,0,1-.325.732l-2.5,2.5a.5.5,0,1,0,.707.707l2.5-2.5a2.036,2.036,0,0,0,.618-1.44A1.9,1.9,0,0,0,6.009,0,2.052,2.052,0,0,0,4.646.617Z" transform="translate(19 16.029)" fill="#654ad2"/><path d="M18,5.5A5.5,5.5,0,0,0,7.512,3.179a.5.5,0,0,0,.907.423A4.5,4.5,0,0,1,17,5.5c0,2.935-2.987,7.6-8,10.428C3.986,13.1,1,8.436,1,5.5A4.5,4.5,0,0,1,7.3,1.375.5.5,0,1,0,7.7.459,5.5,5.5,0,0,0,0,5.5c0,3.229,3.07,8.335,8.761,11.439a.5.5,0,0,0,.479,0C14.93,13.835,18,8.729,18,5.5Z" transform="translate(6)" fill="#654ad2"/><path d="M4,0A2,2,0,0,0,2,2V5.958a.5.5,0,1,0,1,0V2A1,1,0,0,1,5,2V9.5a2.878,2.878,0,0,1-.853,2.147l-4,4a.5.5,0,1,0,.707.707l3.969-3.971A3.87,3.87,0,0,0,6,9.5V2A2,2,0,0,0,4,0Z" transform="translate(24 9)" fill="#654ad2"/><path d="M8.5,0H.5A.5.5,0,0,0,0,.5v2a.5.5,0,0,0,1,0V1H8V2.5a.5.5,0,0,0,1,0V.5A.5.5,0,0,0,8.5,0Z" transform="translate(18 27)" fill="#654ad2"/><path d="M.333.971A2.527,2.527,0,0,1,1.854,2.494.5.5,0,1,0,2.8,2.16,3.488,3.488,0,0,0,.667.029.5.5,0,1,0,.333.971Z" transform="translate(19.004 2.172)" fill="#654ad2"/></g></svg>