<svg xmlns="http://www.w3.org/2000/svg" width="32" height="32" viewBox="0 0 32 32"><rect width="32" height="32" fill="none"/><g transform="translate(1 1)"><path d="M7.485,3c-.145,0-.554-.45-.825-.748A5.507,5.507,0,0,0,2.5,0C.433,0,0,.544,0,1a.5.5,0,0,0,.953.207A3.511,3.511,0,0,1,2.5,1,4.54,4.54,0,0,1,5.922,2.925C6.468,3.526,6.9,4,7.485,4h6.487a.5.5,0,0,0,0-1H7.485Z" transform="translate(2.994 17)" fill="#654ad2"/><path d="M2.788.955A3.546,3.546,0,0,1,2.994,2.5,4.553,4.553,0,0,1,1.072,5.934C.473,6.481,0,6.913,0,7.5V14a.5.5,0,1,0,1,0V7.5c0-.145.449-.555.747-.827A5.521,5.521,0,0,0,3.992,2.5c0-2.066-.543-2.5-1-2.5a.5.5,0,0,0-.207.955Z" transform="translate(8.982 3)" fill="#654ad2"/><path d="M0,9.5a.5.5,0,0,0,.5.5H2.921a2.567,2.567,0,0,1,.073.5v5a.5.5,0,1,0,1,0v-5a7.531,7.531,0,0,0-.446-1.967A9.6,9.6,0,0,1,2.994,6V1.5a.5.5,0,1,1,1,0,.5.5,0,1,0,1,0,.5.5,0,1,1,1,0,.5.5,0,1,0,1,0,.5.5,0,1,1,1,0,.5.5,0,1,0,1,0,.5.5,0,1,1,1,0v4a.5.5,0,1,0,1,0v-4A1.5,1.5,0,0,0,8.483.383a1.492,1.492,0,0,0-2,0,1.492,1.492,0,0,0-2,0A1.5,1.5,0,0,0,2,1.5V3H.5a.5.5,0,0,0,0,1H2V6a10.265,10.265,0,0,0,.6,2.83L2.645,9H.5A.5.5,0,0,0,0,9.5Z" fill="#654ad2"/><path d="M7.811,1.748A5.507,5.507,0,0,0,11.977,4c2.062,0,2.5-.544,2.5-1a.5.5,0,0,0-.953-.207A3.511,3.511,0,0,1,11.977,3,4.54,4.54,0,0,1,8.549,1.075C8,.474,7.572,0,6.986,0H.5a.5.5,0,0,0,0,1H6.986C7.131,1,7.54,1.45,7.811,1.748Z" transform="translate(12.476 9)" fill="#654ad2"/><path d="M15.47,7h-4.99a7.483,7.483,0,0,0-1.963.447A9.54,9.54,0,0,1,5.988,8H1.5a.5.5,0,0,1,0-1,.5.5,0,0,0,0-1,.5.5,0,0,1,0-1,.5.5,0,0,0,0-1,.5.5,0,0,1,0-1,.5.5,0,0,0,0-1,.5.5,0,0,1,0-1H5.489a.5.5,0,0,0,0-1H1.5A1.5,1.5,0,0,0,.382,2.5a1.5,1.5,0,0,0,0,2,1.5,1.5,0,0,0,0,2A1.5,1.5,0,0,0,1.5,9h1.5v1.5a.5.5,0,1,0,1,0V9h2a10.186,10.186,0,0,0,2.824-.6l.17-.052V10.5a.5.5,0,1,0,1,0V8.073a2.518,2.518,0,0,1,.5-.073h4.99a.5.5,0,0,0,0-1Z" transform="translate(0 19)" fill="#654ad2"/><path d="M15.586,4.5A1.5,1.5,0,0,0,14.472,2h-1.5V.5a.5.5,0,1,0-1,0V2h-2a10.186,10.186,0,0,0-2.824.6l-.17.052V.5a.5.5,0,1,0-1,0V2.927a2.518,2.518,0,0,1-.5.073H.5a.5.5,0,0,0,0,1h4.99a7.483,7.483,0,0,0,1.963-.447A9.543,9.543,0,0,1,9.98,3h4.491a.5.5,0,0,1,0,1,.5.5,0,0,0,0,1,.5.5,0,0,1,0,1,.5.5,0,0,0,0,1,.5.5,0,0,1,0,1,.5.5,0,0,0,0,1,.5.5,0,0,1,0,1H10.479a.5.5,0,0,0,0,1h3.992a1.5,1.5,0,0,0,1.115-2.5,1.5,1.5,0,0,0,0-2,1.5,1.5,0,0,0,0-2Z" transform="translate(13.973)" fill="#654ad2"/><path d="M1.2,13.545A3.546,3.546,0,0,1,1,12,4.553,4.553,0,0,1,2.92,8.566c.6-.547,1.072-.979,1.072-1.566V.5a.5.5,0,1,0-1,0V7c0,.145-.449.555-.747.827A5.521,5.521,0,0,0,0,12c0,2.066.543,2.5,1,2.5a.5.5,0,0,0,.207-.955Z" transform="translate(16.967 12.5)" fill="#654ad2"/><path d="M10.978,6.5a.5.5,0,0,0-.5-.5H8.057a2.567,2.567,0,0,1-.073-.5V.5a.5.5,0,1,0-1,0v5a7.531,7.531,0,0,0,.446,1.967A9.6,9.6,0,0,1,7.984,10v4.5a.5.5,0,1,1-1,0,.5.5,0,1,0-1,0,.5.5,0,1,1-1,0,.5.5,0,1,0-1,0,.5.5,0,1,1-1,0,.5.5,0,1,0-1,0,.5.5,0,1,1-1,0v-4a.5.5,0,1,0-1,0v4a1.5,1.5,0,0,0,2.5,1.117,1.491,1.491,0,0,0,2,0,1.492,1.492,0,0,0,2,0,1.5,1.5,0,0,0,2.5-1.117V13h1.5a.5.5,0,0,0,0-1h-1.5V10a10.265,10.265,0,0,0-.6-2.83L8.333,7h2.146A.5.5,0,0,0,10.978,6.5Z" transform="translate(18.963 14)" fill="#654ad2"/></g></svg>