<svg xmlns="http://www.w3.org/2000/svg" width="64" height="64" viewBox="0 0 64 64"><g transform="translate(0 0)"><g transform="translate(1.25 1.25)"><path d="M7.574,0A3.043,3.043,0,0,0,5.331.991,3.043,3.043,0,0,0,3.088,0,3.128,3.128,0,0,0,0,3.167c0,2.45,5.331,6.526,5.331,6.526s5.331-4.076,5.331-6.526A3.128,3.128,0,0,0,7.574,0Z" transform="translate(50.839 6.75)" fill="#ff4d5f"/><path d="M7.574,0A3.043,3.043,0,0,0,5.331.991,3.043,3.043,0,0,0,3.088,0,3.128,3.128,0,0,0,0,3.167c0,2.45,5.331,6.526,5.331,6.526s5.331-4.076,5.331-6.526A3.128,3.128,0,0,0,7.574,0Z" transform="translate(0 0)" fill="#ff4d5f"/></g><path d="M40.672,52.925,54.75,38.847l-6.714-6.714.008-5.573a17.886,17.886,0,0,0-3.031-9.987l-5.5-8.2A3.73,3.73,0,0,0,34.257,7.4a3.8,3.8,0,0,0-.985,5.058l2.1,3.469a.537.537,0,0,1-.84.659L19.057,1.11a3.709,3.709,0,0,0-5.208-.081,3.648,3.648,0,0,0-.188,4.99L11.4,3.761A3.65,3.65,0,0,0,6.29,3.712a3.728,3.728,0,0,0,.018,5.279l2.19,2.19a3.648,3.648,0,0,0-4.99.188,3.709,3.709,0,0,0,.081,5.208L6.042,19.03a3.648,3.648,0,0,0-4.973.171h0a3.65,3.65,0,0,0,0,5.162L12.926,36.22h0l4.757,4.757a17.885,17.885,0,0,0,12.673,5.239l3.6-.005Z" transform="translate(8 9.709)" fill="#ffedef"/><path d="M10.121,35.531l5.5-5.5,4.006.006a12.859,12.859,0,0,0,7.18-2.179l5.9-3.955a2.682,2.682,0,0,0,.7-3.766h0a2.682,2.682,0,0,0-3.587-.755l-2.55,1.546a.387.387,0,0,1-.474-.6l8.439-8.44a2.624,2.624,0,0,0,0-3.711h0a2.624,2.624,0,0,0-3.711,0l-5.9,5.9,1.845-1.832,5.9-5.9a2.624,2.624,0,0,0,0-3.711h0a2.624,2.624,0,0,0-3.711,0l-5.9,5.9-1.831,1.845,5.9-5.9a2.624,2.624,0,0,0,0-3.711h0a2.624,2.624,0,0,0-3.711,0l-5.9,5.9.007.007,1.544-1.544a2.624,2.624,0,0,0,0-3.711h0a2.624,2.624,0,0,0-3.711,0L12.678,4.794l2.783-2.783-6.2,6.2a12.858,12.858,0,0,0-3.766,9.11l0,2.589L0,25.41Z" transform="translate(1.25 27.218)" fill="#ffedef"/><path d="M11.371,55.562a1.25,1.25,0,0,1-.884-2.134l5.5-5.5a1.246,1.246,0,0,1,.885-.366l4.008.006h.016A11.572,11.572,0,0,0,27.356,45.6l5.9-3.956a1.432,1.432,0,0,0-1.54-2.414l-2.55,1.545a1.653,1.653,0,0,1-.857.243,1.641,1.641,0,0,1-1.149-2.8l8.439-8.44a1.374,1.374,0,0,0-1.828-2.046l-6.011,6a1.25,1.25,0,0,1-1.768-1.768l7.741-7.727a1.375,1.375,0,0,0-.972-2.346,1.362,1.362,0,0,0-.971.4l-7.727,7.74a1.25,1.25,0,0,1-1.769-1.768l6-6.012a1.374,1.374,0,0,0-2.046-1.827l-5.889,5.9a1.249,1.249,0,0,1-1.768,0l0,0a1.255,1.255,0,0,1,0-1.771l1.652-1.652a1.353,1.353,0,0,0,.3-.856,1.375,1.375,0,0,0-2.346-.972l-.595.6-6.2,6.2a11.531,11.531,0,0,0-3.4,8.225l0,2.589a1.256,1.256,0,0,1-.366.886l-5.5,5.5A1.25,1.25,0,0,1,.366,43.305L5.5,38.176l0-2.07a13.918,13.918,0,0,1,3.251-9.031l-.557-.557a4.9,4.9,0,0,1,2.152-8.184,4.9,4.9,0,0,1,2.5-7.863,4.9,4.9,0,0,1,3.979-7.759,4.855,4.855,0,0,1,2.859.921,4.9,4.9,0,0,1,8.2-2.2L30.5,4.059a1.25,1.25,0,1,1-1.768,1.768L26.109,3.2a2.4,2.4,0,0,0-3.56,3.209L29.715,13.6a1.25,1.25,0,0,1-1.768,1.768L18.518,5.916A2.4,2.4,0,0,0,15.125,9.31l5.382,5.382a1.25,1.25,0,0,1-1.768,1.768l-3.119-3.12a2.4,2.4,0,0,0-3.209,3.56l3.221,3.2.792-.792a3.876,3.876,0,0,1,6.269,1.14l1.787-1.788A3.878,3.878,0,0,1,30.8,19.926a3.876,3.876,0,0,1,5.3,5.3,3.878,3.878,0,0,1,1.262,6.323L32.389,36.53h.06a3.929,3.929,0,0,1,3.874,4.651,3.9,3.9,0,0,1-1.676,2.544l-2.161,1.449a16.622,16.622,0,0,0,5.844,1.064h.024l3.6-.005a1.244,1.244,0,0,1,.886.366l6.713,6.714a1.25,1.25,0,1,1-1.768,1.768l-6.347-6.347-3.083,0H38.33a19.255,19.255,0,0,1-8.319-1.9l-1.263.847a14.063,14.063,0,0,1-7.858,2.391h-.02l-3.487-.005L12.254,55.2A1.242,1.242,0,0,1,11.371,55.562Zm.279-34.907a2.4,2.4,0,0,0-1.7,4.1l.515.515,2.576-2.576.81-.809-.691-.69A2.4,2.4,0,0,0,11.649,20.655Z" transform="translate(0 8.438)" fill="#ff4d5f"/><path d="M1.25,0A1.25,1.25,0,0,0,.366,2.134a1.249,1.249,0,0,0,1.767,0A1.25,1.25,0,0,0,1.25,0Z" transform="translate(61.5 47.306)" fill="#ff4d5f"/><path d="M23.022,26.152l.007-5.054a19.069,19.069,0,0,0-3.243-10.685l-5.5-8.2A4.98,4.98,0,0,0,7.292.9,5,5,0,0,0,5.4,6.487L2.134,3.22A1.25,1.25,0,1,0,.366,4.988l7.018,7.018a1.788,1.788,0,0,0,2.793-2.191L8.027,6.268A2.48,2.48,0,0,1,10.6,2.544a2.462,2.462,0,0,1,1.6,1.057l5.5,8.2a16.578,16.578,0,0,1,2.819,9.289l-.008,5.573a1.25,1.25,0,0,0,.366.886l3.353,3.353a1.25,1.25,0,1,0,1.768-1.768Z" transform="translate(34.265 15.173)" fill="#ff4d5f"/><path d="M1.251,2.5a1.25,1.25,0,0,0,0-2.5A1.25,1.25,0,0,0,0,1.25,1.25,1.25,0,0,0,1.251,2.5Z" transform="translate(31.326 15.089)" fill="#ff4d5f"/><path d="M4.064,2.134A1.25,1.25,0,0,0,2.3.366L1.751.911a5.994,5.994,0,0,0,0,8.467A1.25,1.25,0,0,0,3.518,7.61a3.491,3.491,0,0,1,0-4.931Z" transform="translate(40.997 32.719)" fill="#ff4d5f"/><path d="M6.581,12.192a1.242,1.242,0,0,1-.76-.256l-.008-.006a32.323,32.323,0,0,1-2.78-2.445C.992,7.454,0,5.8,0,4.417A4.383,4.383,0,0,1,4.338,0,4.287,4.287,0,0,1,6.581.638,4.288,4.288,0,0,1,8.824,0a4.383,4.383,0,0,1,4.338,4.417c0,1.379-.992,3.037-3.034,5.068a32.172,32.172,0,0,1-2.788,2.451A1.241,1.241,0,0,1,6.581,12.192ZM4.338,2.5A1.881,1.881,0,0,0,2.5,4.417c0,1.01,2.052,3.242,4.08,4.926,2.028-1.684,4.081-3.917,4.081-4.926A1.881,1.881,0,0,0,8.824,2.5,1.786,1.786,0,0,0,7.5,3.089a1.251,1.251,0,0,1-1.838,0A1.786,1.786,0,0,0,4.338,2.5Z" transform="translate(50.839 6.75)" fill="#ff4d5f"/><path d="M6.581,12.192a1.242,1.242,0,0,1-.76-.256l-.008-.006a32.232,32.232,0,0,1-2.78-2.446C.992,7.454,0,5.8,0,4.416A4.383,4.383,0,0,1,4.338,0,4.287,4.287,0,0,1,6.581.638,4.288,4.288,0,0,1,8.824,0a4.383,4.383,0,0,1,4.338,4.417c0,1.379-.992,3.037-3.034,5.068a32.172,32.172,0,0,1-2.788,2.451A1.241,1.241,0,0,1,6.581,12.192ZM4.338,2.5A1.88,1.88,0,0,0,2.5,4.416c0,1.01,2.052,3.243,4.08,4.927,2.028-1.685,4.081-3.919,4.081-4.927A1.88,1.88,0,0,0,8.824,2.5,1.788,1.788,0,0,0,7.5,3.088a1.251,1.251,0,0,1-1.838,0A1.788,1.788,0,0,0,4.338,2.5Z" transform="translate(0 0)" fill="#ff4d5f"/></g></svg>